{
  "accessors": [
    {
      "bufferView": 2,
      "componentType": 5126,
      "count": 614,
      "max": [
        149.1337127685547,
        117.33038330078125,
        2.018963575363159
      ],
      "min": [
        -149.1337127685547,
        -115.51383972167969,
        -135.53103637695313
      ],
      "type": "VEC3"
    },
    {
      "bufferView": 2,
      "byteOffset": 7368,
      "componentType": 5126,
      "count": 614,
      "max": [
        1.0,
        1.0,
        1.0
      ],
      "min": [
        -1.0,
        -1.0,
        -1.0
      ],
      "type": "VEC3"
    },
    {
      "bufferView": 1,
      "componentType": 5126,
      "count": 614,
      "max": [
        0.9675335884094238,
        0.9852827787399292
      ],
      "min": [
        0.019443340599536896,
        0.014311438426375389
      ],
      "type": "VEC2"
    },
    {
      "bufferView": 0,
      "componentType": 5125,
      "count": 1320,
      "type": "SCALAR"
    },
    {
      "bufferView": 2,
      "byteOffset": 14736,
      "componentType": 5126,
      "count": 554,
      "max": [
        148.68191528320313,
        117.28734588623047,
        74.46768951416016
      ],
      "min": [
        -148.68191528320313,
        -119.19257354736328,
        -12.298553466796875
      ],
      "type": "VEC3"
    },
    {
      "bufferView": 2,
      "byteOffset": 21384,
      "componentType": 5126,
      "count": 554,
      "max": [
        1.0,
        1.0,
        1.0
      ],
      "min": [
        -1.0,
        -1.0,
        -1.0
      ],
      "type": "VEC3"
    },
    {
      "bufferView": 1,
      "byteOffset": 4912,
      "componentType": 5126,
      "count": 554,
      "max": [
        0.9793084859848022,
        0.9877719879150391
      ],
      "min": [
        0.015325551852583885,
        0.15735015273094177
      ],
      "type": "VEC2"
    },
    {
      "bufferView": 0,
      "byteOffset": 5280,
      "componentType": 5125,
      "count": 1392,
      "type": "SCALAR"
    },
    {
      "bufferView": 3,
      "componentType": 5126,
      "count": 31,
      "max": [
        1.0
      ],
      "min": [
        0.0
      ],
      "type": "SCALAR"
    },
    {
      "bufferView": 4,
      "componentType": 5126,
      "count": 31,
      "max": [
        0.0004061973304487765,
        0.0,
        0.0,
        1.0
      ],
      "min": [
        -0.7071067094802856,
        0.0,
        0.0,
        0.7071068286895752
      ],
      "type": "VEC4"
    },
    {
      "bufferView": 3,
      "byteOffset": 124,
      "componentType": 5126,
      "count": 36,
      "max": [
        1.1666666269302368
      ],
      "min": [
        0.0
      ],
      "type": "SCALAR"
    },
    {
      "bufferView": 4,
      "byteOffset": 496,
      "componentType": 5126,
      "count": 36,
      "max": [
        0.9762960076332092,
        0.0,
        0.0,
        1.0
      ],
      "min": [
        -0.7071067094802856,
        0.0,
        0.0,
        -0.4735566973686218
      ],
      "type": "VEC4"
    },
    {
      "bufferView": 3,
      "byteOffset": 268,
      "componentType": 5126,
      "count": 31,
      "max": [
        2.3333332538604736
      ],
      "min": [
        1.3333333730697632
      ],
      "type": "SCALAR"
    },
    {
      "bufferView": 4,
      "byteOffset": 1072,
      "componentType": 5126,
      "count": 31,
      "max": [
        0.00019848164811264724,
        -0.0,
        0.0,
        1.0
      ],
      "min": [
        -0.7071067690849304,
        -0.0,
        0.0,
        0.7071067690849304
      ],
      "type": "VEC4"
    },
    {
      "bufferView": 3,
      "byteOffset": 392,
      "componentType": 5126,
      "count": 36,
      "max": [
        2.3333332538604736
      ],
      "min": [
        1.1666666269302368
      ],
      "type": "SCALAR"
    },
    {
      "bufferView": 4,
      "byteOffset": 1568,
      "componentType": 5126,
      "count": 36,
      "max": [
        0.9762960076332092,
        0.0,
        0.0,
        1.0
      ],
      "min": [
        -0.7071067690849304,
        0.0,
        0.0,
        -0.475748747587204
      ],
      "type": "VEC4"
    }
  ],
  "animations": [
    {
      "channels": [
        {
          "sampler": 0,
          "target": {
            "node": 8,
            "path": "rotation"
          }
        }
      ],
      "name": "OpenNormal",
      "samplers": [
        {
          "input": 8,
          "interpolation": "LINEAR",
          "output": 9
        }
      ]
    },
    {
      "channels": [
        {
          "sampler": 0,
          "target": {
            "node": 8,
            "path": "rotation"
          }
        }
      ],
      "name": "OpenExtended",
      "samplers": [
        {
          "input": 10,
          "interpolation": "LINEAR",
          "output": 11
        }
      ]
    },
    {
      "channels": [
        {
          "sampler": 0,
          "target": {
            "node": 8,
            "path": "rotation"
          }
        }
      ],
      "name": "CloseNormal",
      "samplers": [
        {
          "input": 12,
          "interpolation": "LINEAR",
          "output": 13
        }
      ]
    },
    {
      "channels": [
        {
          "sampler": 0,
          "target": {
            "node": 8,
            "path": "rotation"
          }
        }
      ],
      "name": "CloseExtended",
      "samplers": [
        {
          "input": 14,
          "interpolation": "LINEAR",
          "output": 15
        }
      ]
    }
  ],
  "asset": {
    "extras": {
      "author": "Harley Torrisi (https://sketchfab.com/htorrisi)",
      "license": "CC-BY-NC-ND-4.0 (http://creativecommons.org/licenses/by-nc-nd/4.0/)",
      "source": "https://sketchfab.com/3d-models/low-poly-pirates-chest-084162b39dfd4808a6c481193463690d",
      "title": "Low-Poly Pirates Chest"
    },
    "generator": "Sketchfab-12.68.0",
    "version": "2.0"
  },
  "bufferViews": [
    {
      "buffer": 0,
      "byteLength": 10848,
      "name": "floatBufferViews",
      "target": 34963
    },
    {
      "buffer": 0,
      "byteLength": 9344,
      "byteOffset": 10848,
      "byteStride": 8,
      "name": "floatBufferViews",
      "target": 34962
    },
    {
      "buffer": 0,
      "byteLength": 28032,
      "byteOffset": 20192,
      "byteStride": 12,
      "name": "floatBufferViews",
      "target": 34962
    },
    {
      "buffer": 0,
      "byteLength": 536,
      "byteOffset": 48224,
      "name": "floatBufferViews"
    },
    {
      "buffer": 0,
      "byteLength": 2144,
      "byteOffset": 48760,
      "byteStride": 16,
      "name": "floatBufferViews"
    }
  ],
  "buffers": [
    {
      "byteLength": 50904,
      "uri": "scene.bin"
    }
  ],
  "images": [
    {
      "uri": "textures/Material_2_baseColor.png"
    }
  ],
  "materials": [
    {
      "name": "Material_2",
      "pbrMetallicRoughness": {
        "baseColorTexture": {
          "index": 0
        },
        "metallicFactor": 0.0
      }
    }
  ],
  "meshes": [
    {
      "name": "Mesh_ChestBase_Material #2_0",
      "primitives": [
        {
          "attributes": {
            "NORMAL": 1,
            "POSITION": 0,
            "TEXCOORD_0": 2
          },
          "indices": 3,
          "material": 0,
          "mode": 4
        }
      ]
    },
    {
      "name": "Mesh_ChestLid_Material #2_0",
      "primitives": [
        {
          "attributes": {
            "NORMAL": 5,
            "POSITION": 4,
            "TEXCOORD_0": 6
          },
          "indices": 7,
          "material": 0,
          "mode": 4
        }
      ]
    }
  ],
  "nodes": [
    {
      "children": [
        1
      ],
      "matrix": [
        1.0,
        0.0,
        0.0,
        0.0,
        0.0,
        2.220446049250313e-16,
        -1.0,
        0.0,
        0.0,
        1.0,
        2.220446049250313e-16,
        0.0,
        0.0,
        0.0,
        0.0,
        1.0
      ],
      "name": "Sketchfab_model"
    },
    {
      "children": [
        2
      ],
      "matrix": [
        1.0,
        0.0,
        0.0,
        0.0,
        0.0,
        0.0,
        1.0,
        0.0,
        0.0,
        -1.0,
        0.0,
        0.0,
        0.0,
        0.0,
        0.0,
        1.0
      ],
      "name": "58fcaea479b8435889e4378324df78e0.fbx"
    },
    {
      "children": [
        3
      ],
      "name": "Object_2"
    },
    {
      "children": [
        4
      ],
      "name": "RootNode"
    },
    {
      "children": [
        5
      ],
      "name": "PiratesChest",
      "rotation": [
        -0.7071068286895752,
        -0.0,
        0.0,
        0.7071068286895752
      ]
    },
    {
      "children": [
        6,
        8
      ],
      "name": "Mesh_ChestBase",
      "translation": [
        3.418806954869069e-06,
        78.0,
        3.418806954869069e-06
      ]
    },
    {
      "children": [
        7
      ],
      "matrix": [
        1.0,
        0.0,
        -0.0,
        0.0,
        0.0,
        1.0,
        0.0,
        0.0,
        0.0,
        0.0,
        1.0,
        0.0,
        -3.418806954869069e-06,
        -78.0,
        132.5,
        1.0
      ],
      "name": "Object_6"
    },
    {
      "mesh": 0,
      "name": "Mesh_ChestBase_Material #2_0"
    },
    {
      "children": [
        9
      ],
      "name": "Mesh_ChestLid",
      "translation": [
        1.6847643564688042e-06,
        38.808990478515625,
        134.52767944335938
      ]
    },
    {
      "children": [
        10
      ],
      "matrix": [
        1.0,
        0.0,
        -0.0,
        0.0,
        0.0,
        1.0,
        0.0,
        0.0,
        0.0,
        0.0,
        1.0,
        0.0,
        -5.103571311337873e-06,
        -116.76577758789063,
        -2.1750082969665527,
        1.0
      ],
      "name": "Object_9"
    },
    {
      "mesh": 1,
      "name": "Mesh_ChestLid_Material #2_0"
    }
  ],
  "samplers": [
    {
      "magFilter": 9729,
      "minFilter": 9987,
      "wrapS": 10497,
      "wrapT": 10497
    }
  ],
  "scene": 0,
  "scenes": [
    {
      "name": "Sketchfab_Scene",
      "nodes": [
        0
      ]
    }
  ],
  "textures": [
    {
      "sampler": 0,
      "source": 0
    }
  ]
}
