{
    "asset" : {
        "generator" : "Khronos glTF Blender I/O v1.8.19",
        "version" : "2.0"
    },
    "scene" : 0,
    "scenes" : [
        {
            "name" : "Scene",
            "nodes" : [
                0
            ]
        }
    ],
    "nodes" : [
        {
            "mesh" : 0,
            "name" : "\u96d5\u5851_\u9e7f03"
        }
    ],
    "materials" : [
        {
            "doubleSided" : true,
            "name" : "Mat3d66-1525640-1-3887",
            "pbrMetallicRoughness" : {
                "baseColorFactor" : [
                    0.01960800029337406,
                    0.01960800029337406,
                    0.01960800029337406,
                    1
                ],
                "metallicFactor" : 0.5196850299835205,
                "roughnessFactor" : 0.5
            }
        }
    ],
    "meshes" : [
        {
            "name" : "Obj3d66-1525640-16-463",
            "primitives" : [
                {
                    "attributes" : {
                        "POSITION" : 0,
                        "NORMAL" : 1,
                        "TEXCOORD_0" : 2
                    },
                    "indices" : 3,
                    "material" : 0
                }
            ]
        }
    ],
    "accessors" : [
        {
            "bufferView" : 0,
            "componentType" : 5126,
            "count" : 1428,
            "max" : [
                0.8397750854492188,
                1.370699405670166,
                0.2758484184741974
            ],
            "min" : [
                -0.83978271484375,
                0,
                -0.2758483588695526
            ],
            "type" : "VEC3"
        },
        {
            "bufferView" : 1,
            "componentType" : 5126,
            "count" : 1428,
            "type" : "VEC3"
        },
        {
            "bufferView" : 2,
            "componentType" : 5126,
            "count" : 1428,
            "type" : "VEC2"
        },
        {
            "bufferView" : 3,
            "componentType" : 5123,
            "count" : 1440,
            "type" : "SCALAR"
        }
    ],
    "bufferViews" : [
        {
            "buffer" : 0,
            "byteLength" : 17136,
            "byteOffset" : 0
        },
        {
            "buffer" : 0,
            "byteLength" : 17136,
            "byteOffset" : 17136
        },
        {
            "buffer" : 0,
            "byteLength" : 11424,
            "byteOffset" : 34272
        },
        {
            "buffer" : 0,
            "byteLength" : 2880,
            "byteOffset" : 45696
        }
    ],
    "buffers" : [
        {
            "byteLength" : 48576,
            "uri" : "data:application/octet-stream;base64,"
        }
    ]
}
