{
    "asset" : {
        "generator" : "Khronos glTF Blender I/O v1.8.19",
        "version" : "2.0"
    },
    "scene" : 0,
    "scenes" : [
        {
            "name" : "Scene",
            "nodes" : [
                0
            ]
        }
    ],
    "nodes" : [
        {
            "mesh" : 0,
            "name" : "\u96d5\u5851_\u5927\u8c61"
        }
    ],
    "materials" : [
        {
            "doubleSided" : true,
            "name" : "Mat3d66-1525640-1-3887",
            "pbrMetallicRoughness" : {
                "baseColorFactor" : [
                    0.01960800029337406,
                    0.01960800029337406,
                    0.01960800029337406,
                    1
                ],
                "metallicFactor" : 0.5196850299835205,
                "roughnessFactor" : 0.5
            }
        }
    ],
    "meshes" : [
        {
            "name" : "Obj3d66-1525640-3736-999",
            "primitives" : [
                {
                    "attributes" : {
                        "POSITION" : 0,
                        "NORMAL" : 1,
                        "TEXCOORD_0" : 2
                    },
                    "indices" : 3,
                    "material" : 0
                }
            ]
        }
    ],
    "accessors" : [
        {
            "bufferView" : 0,
            "componentType" : 5126,
            "count" : 4596,
            "max" : [
                2.5391175746917725,
                4.453343868255615,
                1.2848637104034424
            ],
            "min" : [
                -2.5380449295043945,
                1.1175870895385742e-07,
                -1.334022879600525
            ],
            "type" : "VEC3"
        },
        {
            "bufferView" : 1,
            "componentType" : 5126,
            "count" : 4596,
            "type" : "VEC3"
        },
        {
            "bufferView" : 2,
            "componentType" : 5126,
            "count" : 4596,
            "type" : "VEC2"
        },
        {
            "bufferView" : 3,
            "componentType" : 5123,
            "count" : 4596,
            "type" : "SCALAR"
        }
    ],
    "bufferViews" : [
        {
            "buffer" : 0,
            "byteLength" : 55152,
            "byteOffset" : 0
        },
        {
            "buffer" : 0,
            "byteLength" : 55152,
            "byteOffset" : 55152
        },
        {
            "buffer" : 0,
            "byteLength" : 36768,
            "byteOffset" : 110304
        },
        {
            "buffer" : 0,
            "byteLength" : 9192,
            "byteOffset" : 147072
        }
    ],
    "buffers" : [
        {
            "byteLength" : 156264,
            "uri" : "data:application/octet-stream;base64,"
        }
    ]
}
